<?xml version="1.0" encoding="UTF-8"?>
<svg width="13px" height="9px" viewBox="0 0 13 9" version="1.1" xmlns="http://www.w3.org/2000/svg" xmlns:xlink="http://www.w3.org/1999/xlink">
    <!-- Generator: Sketch 50.2 (55047) - http://www.bohemiancoding.com/sketch -->
    <title>Shape</title>
    <desc>Created with Sketch.</desc>
    <defs></defs>
    <g id="Production" stroke="none" stroke-width="1" fill="none" fill-rule="evenodd">
        <g id="Search-Result_01" transform="translate(-141.000000, -155.000000)" fill="#C4C4C4" fill-rule="nonzero">
            <path d="M149.754049,155.135354 C149.576945,154.954882 149.282185,154.954882 149.098889,155.135354 C148.921785,155.309728 148.921785,155.599946 149.098889,155.773914 L152.420927,159.044757 L141.458654,159.044757 C141.203112,159.045163 141,159.245145 141,159.496748 C141,159.748352 141.203112,159.954837 141.458654,159.954837 L152.420927,159.954837 L149.098889,163.219583 C148.921785,163.400054 148.921785,163.690678 149.098889,163.864646 C149.282185,164.045118 149.577358,164.045118 149.754049,163.864646 L153.862528,159.819483 C154.045824,159.645109 154.045824,159.354891 153.862528,159.180923 L149.754049,155.135354 Z" id="Shape"></path>
        </g>
    </g>
</svg>