<?xml version="1.0" encoding="UTF-8"?>
<svg width="24px" height="23px" viewBox="0 0 24 23" version="1.1" xmlns="http://www.w3.org/2000/svg" xmlns:xlink="http://www.w3.org/1999/xlink">
    <!-- Generator: Sketch 50.2 (55047) - http://www.bohemiancoding.com/sketch -->
    <title>Combined Shape</title>
    <desc>Created with Sketch.</desc>
    <defs></defs>
    <g id="Symbols" stroke="none" stroke-width="1" fill="none" fill-rule="evenodd">
        <g id="Desktop-Catalog-Card" transform="translate(-413.000000, -140.000000)" fill="#1D7293" fill-rule="nonzero">
            <path d="M435.718437,160.966285 C435.913578,161.419293 435.865109,161.934637 435.588922,162.344903 C435.312641,162.755076 434.849094,163 434.348844,163 C433.889891,163 433.448984,162.786337 433.169375,162.42845 L432.476234,161.541109 C433.555016,161.292128 434.533531,160.784575 435.340625,160.08895 L435.718437,160.966285 Z M414.659422,160.08895 C415.466469,160.784575 416.445031,161.292128 417.523859,161.541063 L416.830766,162.428358 C416.551016,162.786291 416.110156,162.999954 415.65125,162.999954 C415.151,162.999954 414.687406,162.75503 414.411172,162.344857 C414.134938,161.934684 414.086516,161.419339 414.281609,160.966285 L414.659422,160.08895 Z M421.583234,142.475011 C422.704578,142.475011 423.616859,143.372357 423.616813,144.475343 L423.616813,145.644863 C423.616813,146.027741 423.30125,146.338137 422.912,146.338137 L418.629547,146.338137 C418.617266,146.338137 418.605313,146.336938 418.593172,146.336339 C418.220938,146.317573 417.924734,146.015661 417.924734,145.644863 L417.924734,144.475297 C417.924734,143.372311 418.837016,142.474965 419.958359,142.474965 L420.072219,142.474965 C419.901313,141.848915 419.319641,141.386548 418.629969,141.386548 L417.982438,141.386548 C417.159031,141.386548 416.489094,142.045518 416.489094,142.855445 L416.489094,148.836432 L415.079422,148.836432 L415.079422,142.855491 C415.079422,141.280962 416.38175,140 417.982438,140 L418.629969,140 C420.099453,140 421.316609,141.07984 421.506406,142.475011 L421.583234,142.475011 Z M413.791297,154.278145 L436.20875,154.278145 L436.20875,155.157971 C436.20875,158.008436 433.851172,160.327372 430.953359,160.327372 L419.046688,160.327372 C416.148828,160.327372 413.791297,158.00839 413.791297,155.157971 L413.791297,154.278145 Z M435.986094,150.886607 C436.545172,150.886607 437,151.334082 437,151.884007 C437,152.433933 436.545172,152.881315 435.986094,152.881315 L414.013906,152.881315 C413.454828,152.881315 413,152.433933 413,151.884007 C413,151.334082 413.454828,150.886653 414.013906,150.886607 L435.986094,150.886607 Z" id="Combined-Shape"></path>
        </g>
    </g>
</svg>