<?xml version="1.0" encoding="UTF-8"?>
<svg width="21px" height="15px" viewBox="0 0 21 15" version="1.1" xmlns="http://www.w3.org/2000/svg" xmlns:xlink="http://www.w3.org/1999/xlink">
    <!-- Generator: Sketch 50.2 (55047) - http://www.bohemiancoding.com/sketch -->
    <title>mail</title>
    <desc>Created with Sketch.</desc>
    <defs/>
    <g id="Symbols" stroke="none" stroke-width="1" fill="none" fill-rule="evenodd">
        <g id="Search-Result-Filter-Block" transform="translate(-290.000000, -23.000000)" fill="#176583" fill-rule="nonzero">
            <g id="Email" transform="translate(290.000000, 15.000000)">
                <g id="mail" transform="translate(0.000000, 8.000000)">
                    <g id="Group" transform="translate(3.281250, 7.173913)">
                        <path d="M13.1965313,4.24565217 C13.1158125,4.24565217 13.0350938,4.21630435 12.9720938,4.15695652 L9.19603125,0.636521739 C9.064125,0.513913043 9.0575625,0.307173913 9.18159375,0.176086957 C9.305625,0.0436956522 9.51234375,0.037826087 9.6455625,0.16173913 L13.421625,3.68217391 C13.5535313,3.80478261 13.5600938,4.01152174 13.4360625,4.1426087 C13.3710938,4.21108696 13.2844688,4.24565217 13.1965313,4.24565217 Z" id="Shape"/>
                        <path d="M0.5919375,4.24565217 C0.50465625,4.24565217 0.417375,4.21108696 0.35240625,4.1426087 C0.228375,4.01152174 0.2349375,3.80478261 0.36684375,3.68217391 L4.14421875,0.16173913 C4.27678125,0.0391304348 4.4848125,0.0443478261 4.6081875,0.176086957 C4.73221875,0.307173913 4.72565625,0.513913043 4.59375,0.636521739 L0.816375,4.15695652 C0.753375,4.21630435 0.67265625,4.24565217 0.5919375,4.24565217 Z" id="Shape"/>
                    </g>
                    <path d="M18.711,14.6928261 L1.640625,14.6928261 C0.7363125,14.6928261 0,13.9617391 0,13.0623913 L0,1.94478261 C0,1.04543478 0.7363125,0.314347826 1.640625,0.314347826 L18.711,0.314347826 C19.6153125,0.314347826 20.351625,1.04543478 20.351625,1.94478261 L20.351625,13.0623913 C20.351625,13.9617391 19.6153125,14.6928261 18.711,14.6928261 Z M1.640625,0.966521739 C1.09790625,0.966521739 0.65625,1.40543478 0.65625,1.94478261 L0.65625,13.0623913 C0.65625,13.6017391 1.09790625,14.0406522 1.640625,14.0406522 L18.711,14.0406522 C19.2537187,14.0406522 19.695375,13.6017391 19.695375,13.0623913 L19.695375,1.94478261 C19.695375,1.40543478 19.2537187,0.966521739 18.711,0.966521739 L1.640625,0.966521739 Z" id="Shape"/>
                    <path d="M10.1758125,9.14217391 C9.73940625,9.14217391 9.303,8.99804348 8.9709375,8.71043478 L0.5446875,1.40543478 C0.4081875,1.2873913 0.39375,1.08130435 0.51253125,0.945 C0.632625,0.809347826 0.83934375,0.796956522 0.97584375,0.913695652 L9.40209375,8.21804348 C9.8214375,8.58130435 10.5301875,8.58130435 10.948875,8.21804348 L19.364625,0.925434783 C19.5004688,0.807391304 19.7071875,0.820434783 19.8279375,0.95673913 C19.9467188,1.09304348 19.9329375,1.29847826 19.7964375,1.41717391 L11.3806875,8.70978261 C11.0479688,8.99804348 10.6122188,9.14217391 10.1758125,9.14217391 Z" id="Shape"/>
                </g>
            </g>
        </g>
    </g>
</svg>