<?xml version="1.0" encoding="UTF-8"?>
<svg width="18px" height="15px" viewBox="0 0 18 15" version="1.1" xmlns="http://www.w3.org/2000/svg" xmlns:xlink="http://www.w3.org/1999/xlink">
    <!-- Generator: Sketch 50.2 (55047) - http://www.bohemiancoding.com/sketch -->
    <title>folder</title>
    <desc>Created with Sketch.</desc>
    <defs/>
    <g id="Symbols" stroke="none" stroke-width="1" fill="none" fill-rule="evenodd">
        <g id="Search-Result-Filter-Block" transform="translate(-417.000000, -23.000000)" fill="#176583" fill-rule="nonzero">
            <g id="Save-search" transform="translate(417.000000, 15.000000)">
                <g id="folder" transform="translate(0.000000, 8.000000)">
                    <path d="M17.247,4.95 L16.2,4.95 L16.2,3.0696 C16.2,2.6175 15.8322,2.25 15.3804,2.25 L7.9545,2.25 L6.4545,0.15 L0.8196,0.15 C0.3678,0.15 0,0.5178 0,0.9696 L0,14.0757 L0.0018,14.0757 C0.0003,14.2446 0.0528,14.4099 0.1584,14.5482 C0.3054,14.7402 0.528,14.85 0.7695,14.85 L14.1972,14.85 C14.544,14.85 14.8494,14.6163 14.9322,14.3061 L18,5.8947 L18,5.8416 C18,5.325 17.6832,4.95 17.247,4.95 Z M0.6,0.9696 C0.6,0.8484 0.6987,0.75 0.8196,0.75 L6.1455,0.75 L7.6455,2.85 L15.3801,2.85 C15.5013,2.85 15.5997,2.9484 15.5997,3.0696 L15.5997,4.95 L3.8193,4.95 C3.7761,4.95 3.7332,4.9536 3.6915,4.9608 C3.3996,5.0097 3.1569,5.2227 3.0846,5.4936 L0.6,12.2697 L0.6,0.9696 Z M14.3607,14.1249 C14.3409,14.1984 14.2734,14.25 14.1972,14.25 L0.7695,14.25 C0.6966,14.25 0.654,14.2083 0.6351,14.1834 C0.6162,14.1588 0.5871,14.1066 0.5982,14.061 L3.6555,5.6751 C3.6753,5.6016 3.7428,5.55 3.819,5.55 L16.2,5.55 L17.247,5.55 C17.361,5.55 17.3901,5.7138 17.3976,5.7957 L14.3607,14.1249 Z" id="Shape"/>
                </g>
            </g>
        </g>
    </g>
</svg>