<?xml version="1.0" encoding="UTF-8"?>
<svg width="12px" height="9px" viewBox="0 0 12 9" version="1.1" xmlns="http://www.w3.org/2000/svg" xmlns:xlink="http://www.w3.org/1999/xlink">
    <!-- Generator: Sketch 50.2 (55047) - http://www.bohemiancoding.com/sketch -->
    <title>Shape</title>
    <desc>Created with Sketch.</desc>
    <defs></defs>
    <g id="Production" stroke="none" stroke-width="1" fill="none" fill-rule="evenodd">
        <g id="Sales_10-" transform="translate(-347.000000, -423.000000)" fill="#176583" fill-rule="nonzero">
            <g id="all-midtown" transform="translate(326.000000, 263.000000)">
                <g id="Group-3" transform="translate(18.000000, 155.000000)">
                    <path d="M3.13846154,9.95 C3.04615385,9.86 3,9.725 3,9.635 C3,9.545 3.04615385,9.41 3.13846154,9.32 L3.78461538,8.69 C3.96923077,8.51 4.24615385,8.51 4.43076923,8.69 L4.47692308,8.735 L7.01538462,11.39 C7.10769231,11.48 7.24615385,11.48 7.33846154,11.39 L13.5230769,5.135 L13.5692308,5.135 C13.7538462,4.955 14.0307692,4.955 14.2153846,5.135 L14.8615385,5.765 C15.0461538,5.945 15.0461538,6.215 14.8615385,6.395 L7.47692308,13.865 C7.38461538,13.955 7.29230769,14 7.15384615,14 C7.01538462,14 6.92307692,13.955 6.83076923,13.865 L3.23076923,10.085 L3.13846154,9.95 Z" id="Shape"></path>
                </g>
            </g>
        </g>
    </g>
</svg>