<?xml version="1.0" encoding="UTF-8"?>
<svg width="22px" height="15px" viewBox="0 0 22 15" version="1.1" xmlns="http://www.w3.org/2000/svg" xmlns:xlink="http://www.w3.org/1999/xlink">
    <!-- Generator: Sketch 50.2 (55047) - http://www.bohemiancoding.com/sketch -->
    <title>printer-2</title>
    <desc>Created with Sketch.</desc>
    <defs></defs>
    <g id="Symbols" stroke="none" stroke-width="1" fill="none" fill-rule="evenodd">
        <g id="Search-Result-Filter-Block" transform="translate(-176.000000, -24.000000)" fill="#176583" fill-rule="nonzero">
            <g id="Print" transform="translate(176.000000, 15.000000)">
                <g id="printer-2" transform="translate(0.000000, 9.000000)">
                    <path d="M20.9,4.5 L16.5,4.5 C16.2975083,4.5 16.1333333,4.634325 16.1333333,4.8 L16.1333333,5.7 L15.4,5.7 L15.4,0.3 C15.4,0.134325 15.235825,0 15.0333333,0 L6.96666667,0 C6.764175,0 6.6,0.134325 6.6,0.3 L6.6,5.7 L5.86666667,5.7 L5.86666667,4.8 C5.86666667,4.634325 5.70249167,4.5 5.5,4.5 L1.1,4.5 C0.492479167,4.5 0,4.9029375 0,5.4 L0,12.6 C0,13.0970625 0.492479167,13.5 1.1,13.5 L6.6,13.5 L6.6,14.7 C6.6,14.865675 6.764175,15 6.96666667,15 L15.0333333,15 C15.235825,15 15.4,14.865675 15.4,14.7 L15.4,13.5 L20.9,13.5 C21.5075208,13.5 22,13.0970625 22,12.6 L22,5.4 C22,4.9029375 21.5075208,4.5 20.9,4.5 Z M7.33333333,0.6 L14.6666667,0.6 L14.6666667,5.7 L7.33333333,5.7 L7.33333333,0.6 Z M14.6666667,14.4 L7.33333333,14.4 L7.33333333,12 L14.6666667,12 L14.6666667,14.4 Z M5.86666667,11.4 L5.86666667,10.8 L16.1333333,10.8 L16.1333333,11.4 L5.86666667,11.4 Z M21.2666667,12.6 C21.2666667,12.765675 21.1024917,12.9 20.9,12.9 L15.4,12.9 L15.4,12 L16.5,12 C16.7024917,12 16.8666667,11.865675 16.8666667,11.7 L16.8666667,10.5 C16.8666667,10.334325 16.7024917,10.2 16.5,10.2 L5.5,10.2 C5.29750833,10.2 5.13333333,10.334325 5.13333333,10.5 L5.13333333,11.7 C5.13333333,11.865675 5.29750833,12 5.5,12 L6.6,12 L6.6,12.9 L1.1,12.9 C0.897508333,12.9 0.733333333,12.765675 0.733333333,12.6 L0.733333333,5.4 C0.733333333,5.234325 0.897508333,5.1 1.1,5.1 L5.13333333,5.1 L5.13333333,6 C5.13333333,6.165675 5.29750833,6.3 5.5,6.3 L16.5,6.3 C16.7024917,6.3 16.8666667,6.165675 16.8666667,6 L16.8666667,5.1 L20.9,5.1 C21.1024917,5.1 21.2666667,5.234325 21.2666667,5.4 L21.2666667,12.6 Z" id="Shape"></path>
                    <rect id="Rectangle-path" x="19.8" y="5.7" width="1" height="1"></rect>
                    <rect id="Rectangle-path" x="18.3333333" y="5.7" width="1" height="1"></rect>
                    <rect id="Rectangle-path" x="1.46666667" y="12" width="1.46666667" height="1"></rect>
                    <rect id="Rectangle-path" x="1.46666667" y="11.1" width="1" height="1"></rect>
                </g>
            </g>
        </g>
    </g>
</svg>