<?xml version="1.0" encoding="UTF-8"?>
<svg width="146px" height="49px" viewBox="0 0 146 49" version="1.1" xmlns="http://www.w3.org/2000/svg" xmlns:xlink="http://www.w3.org/1999/xlink">
    <!-- Generator: Sketch 50.2 (55047) - http://www.bohemiancoding.com/sketch -->
    <title>Logo</title>
    <desc>Created with Sketch.</desc>
    <defs></defs>
    <g id="Page-1" stroke="none" stroke-width="1" fill="none" fill-rule="evenodd">
        <g id="Search-Result_02" transform="translate(-60.000000, -10.000000)">
            <g id="Logo" transform="translate(60.000000, 10.000000)">
                <g id="Logo-Copy">
                    <rect id="Rectangle-2" fill="#FFFFFF" x="0" y="0" width="46.1260799" height="48.5861375" rx="3.99759359"></rect>
                    <path d="M5.1009281,0 L41.0251518,-4.4408921e-16 C43.2329618,3.07220103e-15 45.0227454,1.78978362 45.0227454,3.99759359 L45.0227454,44.5885439 C45.0227454,46.7963539 43.2329618,48.5861375 41.0251518,48.5861375 L5.1009281,48.5861375 C2.89311812,48.5861375 1.1033345,46.7963539 1.1033345,44.5885439 L1.1033345,3.99759359 C1.1033345,1.78978362 2.89311812,8.49657323e-16 5.1009281,4.4408921e-16 Z" id="Rectangle-2-Copy" fill="#1D7293"></path>
                    <text id="S" font-family="Didot-Bold, Didot" font-size="38.3768962" font-weight="bold" fill="#FFFFFF">
                        <tspan x="10.762752" y="37">S</tspan>
                    </text>
                </g>
                <path d="M73.5962054,26.2748802 C73.5962054,27.3412918 73.2106624,28.1780021 72.4395649,28.7850363 C71.6684673,29.3920706 70.6048061,29.6955832 69.2485494,29.6955832 C67.8922927,29.6955832 66.7821476,29.4850384 65.9180809,29.0639426 L65.9180809,27.2100364 C66.4649586,27.467069 67.0460074,27.6694107 67.6612448,27.8170676 C68.2764822,27.9647246 68.849328,28.038552 69.3797994,28.038552 C70.1563658,28.038552 70.7292116,27.8908972 71.098354,27.5955833 C71.4674965,27.3002693 71.6520649,26.9037889 71.6520649,26.4061302 C71.6520649,25.9576905 71.4825354,25.5776162 71.1434712,25.2658959 C70.804407,24.9541756 70.1044141,24.5850387 69.0434713,24.1584741 C67.9497159,23.7155032 67.1786299,23.2096489 66.7301902,22.6408961 C66.2817505,22.0721433 66.057534,21.3885564 66.057534,20.590115 C66.057534,19.5893288 66.4129992,18.8018367 67.1239402,18.2276151 C67.8348812,17.6533935 68.7891685,17.366287 69.9868306,17.366287 C71.1352738,17.366287 72.2782311,17.617847 73.4157367,18.1209745 L72.7922992,19.7205838 C71.7258877,19.272144 70.7743348,19.0479275 69.9376119,19.0479275 C69.3032338,19.0479275 68.8219886,19.1860121 68.493862,19.4621853 C68.1657354,19.7383586 68.0016745,20.103394 68.0016745,20.5573025 C68.0016745,20.8690227 68.0672988,21.1356216 68.1985495,21.3571071 C68.3298001,21.5785926 68.5458136,21.7877701 68.8465963,21.9846461 C69.1473791,22.1815221 69.6887799,22.4412851 70.470815,22.7639429 C71.3512881,23.130351 71.9965941,23.4721444 72.4067524,23.7893335 C72.8169106,24.1065226 73.1176889,24.4647221 73.3090961,24.8639428 C73.5005033,25.2631635 73.5962054,25.7334713 73.5962054,26.2748802 Z M80.10558,28.1533957 C80.914959,28.1533957 81.4960079,27.919609 81.848744,27.4520286 C82.2014801,26.9844482 82.3778455,26.2776193 82.3778455,25.3315209 L82.3778455,25.0280053 C82.3778455,23.906906 82.1960114,23.1002735 81.8323377,22.6080836 C81.4686641,22.1158936 80.8821465,21.8698024 80.0727675,21.8698024 C79.3837016,21.8698024 78.8587069,22.1432371 78.4977676,22.6901148 C78.1368283,23.2369925 77.9563614,24.0217503 77.9563614,25.0444116 C77.9563614,27.117078 78.6727605,28.1533957 80.10558,28.1533957 Z M79.5559707,29.6955832 C78.4348714,29.6955832 77.5571459,29.2840639 76.9227677,28.4610129 C76.2883896,27.637962 75.9712053,26.4881689 75.9712053,25.0115991 C75.9712053,23.5350293 76.2938583,22.3797675 76.939174,21.545779 C77.5844897,20.7117905 78.4731526,20.2948025 79.6051894,20.2948025 C80.1739422,20.2948025 80.6838981,20.4000748 81.1350722,20.6106228 C81.5862463,20.8211707 81.9895625,21.1670656 82.345033,21.648318 L82.410658,21.648318 L82.6239393,20.458865 L84.2235485,20.458865 L84.2235485,33.5674579 L82.2876111,33.5674579 L82.2876111,29.7201925 C82.2876111,29.4795663 82.2985485,29.225272 82.3204236,28.957302 C82.3422988,28.6893319 82.3614392,28.4842558 82.3778455,28.3420676 L82.2712049,28.3420676 C81.7024521,29.2444158 80.7973831,29.6955832 79.5559707,29.6955832 Z M94.1782354,29.5315207 L93.9075323,28.3420676 L93.8090948,28.3420676 C93.5411248,28.7631634 93.1596833,29.0940195 92.664759,29.3346457 C92.1698346,29.5752719 91.6051919,29.6955832 90.9708138,29.6955832 C89.8715896,29.6955832 89.0512853,29.4221484 88.5098764,28.8752707 C87.9684675,28.328393 87.6977671,27.4998857 87.6977671,26.389724 L87.6977671,20.458865 L89.6419076,20.458865 L89.6419076,26.0533959 C89.6419076,26.7479306 89.7840937,27.2688238 90.0684701,27.6160911 C90.3528465,27.9633584 90.7985451,28.1369895 91.4055794,28.1369895 C92.2149584,28.1369895 92.8096789,27.8949997 93.1897589,27.411013 C93.5698389,26.9270262 93.7598761,26.1162922 93.7598761,24.9787866 L93.7598761,20.458865 L95.6958135,20.458865 L95.6958135,29.5315207 L94.1782354,29.5315207 Z M104.920422,29.5315207 L104.534875,28.2682395 L104.46925,28.2682395 C104.031748,28.820586 103.591518,29.1965588 103.148547,29.3961691 C102.705576,29.5957795 102.136832,29.6955832 101.442298,29.6955832 C100.550887,29.6955832 99.8549954,29.4549606 99.3546023,28.9737082 C98.8542092,28.4924558 98.6040164,27.8116033 98.6040164,26.9311302 C98.6040164,25.9959693 98.9512786,25.2905077 99.6458132,24.8147241 C100.340348,24.3389405 101.39854,24.0791775 102.820422,24.0354272 L104.387219,23.9862085 L104.387219,23.5022242 C104.387219,22.9225338 104.251869,22.4891397 103.981165,22.2020289 C103.71046,21.9149181 103.290738,21.7713649 102.721985,21.7713649 C102.257139,21.7713649 101.81144,21.8397236 101.384876,21.976443 C100.958311,22.1131624 100.548159,22.2744889 100.154407,22.4604273 L99.5309695,21.0823024 C100.023159,20.8252699 100.561826,20.6297641 101.146985,20.495779 C101.732144,20.361794 102.284482,20.2948025 102.804016,20.2948025 C103.957928,20.2948025 104.828818,20.5463624 105.416711,21.0494899 C106.004605,21.5526174 106.298547,22.3428438 106.298547,23.4201929 L106.298547,29.5315207 L104.920422,29.5315207 Z M102.049329,28.2190207 C102.749332,28.2190207 103.311241,28.0235149 103.735071,27.6324973 C104.158901,27.2414798 104.370813,26.6932431 104.370813,25.9877709 L104.370813,25.2002709 L103.205969,25.2494897 C102.298152,25.2823023 101.637807,25.4340586 101.224915,25.7047631 C100.812022,25.9754675 100.605579,26.3897212 100.605579,26.9475364 C100.605579,27.3522259 100.72589,27.6653087 100.966516,27.8867942 C101.207142,28.1082797 101.568076,28.2190207 102.049329,28.2190207 Z M114.391125,20.2948025 C114.779408,20.2948025 115.099327,20.3221459 115.35089,20.3768337 L115.162219,22.173318 C114.88878,22.1076927 114.604408,22.0748805 114.309094,22.0748805 C113.537996,22.0748805 112.913198,22.3264405 112.43468,22.8295679 C111.956162,23.3326954 111.716906,23.9862045 111.716906,24.7901147 L111.716906,29.5315207 L109.789172,29.5315207 L109.789172,20.458865 L111.298547,20.458865 L111.552844,22.0584742 L111.651281,22.0584742 C111.952064,21.5170653 112.344443,21.0877728 112.82843,20.7705837 C113.312416,20.4533946 113.83331,20.2948025 114.391125,20.2948025 Z M121.458312,29.6955832 C120.047367,29.6955832 118.944058,29.2840639 118.148351,28.4610129 C117.352644,27.637962 116.954797,26.5045749 116.954797,25.0608178 C116.954797,23.5787792 117.323933,22.4139472 118.062218,21.5662868 C118.800503,20.7186263 119.814946,20.2948025 121.105578,20.2948025 C122.30324,20.2948025 123.249324,20.6584707 123.943859,21.385818 C124.638393,22.1131654 124.985655,23.1139366 124.985655,24.3881616 L124.985655,25.4299584 L118.939953,25.4299584 C118.967297,26.3104315 119.205185,26.9871825 119.653625,27.4602317 C120.102064,27.9332809 120.733699,28.169802 121.548546,28.169802 C122.084486,28.169802 122.583505,28.1192166 123.045617,28.0180442 C123.507728,27.9168718 124.004012,27.7487094 124.534484,27.513552 L124.534484,29.0803488 C124.064169,29.3045687 123.588392,29.4631608 123.10714,29.55613 C122.625888,29.6490993 122.076284,29.6955832 121.458312,29.6955832 Z M121.105578,21.7549586 C120.493075,21.7549586 120.002259,21.9490973 119.633117,22.3373805 C119.263974,22.7256636 119.043859,23.2916736 118.972765,24.0354272 L123.090734,24.0354272 C123.079796,23.2862048 122.899329,22.7188277 122.549327,22.3332789 C122.199326,21.9477301 121.718081,21.7549586 121.105578,21.7549586 Z M127.368858,24.4209741 C127.368858,19.7287634 129.280167,17.3826933 133.102842,17.3826933 C133.704408,17.3826933 134.212997,17.4291772 134.628624,17.5221464 L134.628624,19.1299588 C134.212997,19.0096457 133.731751,18.94949 133.184874,18.94949 C131.899711,18.94949 130.934486,19.2940178 130.289171,19.9830837 C129.643855,20.6721496 129.293859,21.776826 129.239171,23.297146 L129.337608,23.297146 C129.594641,22.8541751 129.955575,22.5110145 130.420421,22.2676539 C130.885267,22.0242933 131.432136,21.9026149 132.061046,21.9026149 C133.149332,21.9026149 133.99698,22.2362053 134.604014,22.9033961 C135.211049,23.5705869 135.514561,24.4756559 135.514561,25.6186303 C135.514561,26.876449 135.163197,27.8703843 134.46046,28.600466 C133.757722,29.3305478 132.799333,29.6955832 131.585264,29.6955832 C130.726666,29.6955832 129.98019,29.4891399 129.345811,29.0762473 C128.711433,28.6633546 128.223352,28.0617981 127.881554,27.2715599 C127.539755,26.4813216 127.368858,25.5311358 127.368858,24.4209741 Z M131.552452,28.104177 C132.214174,28.104177 132.72413,27.8908979 133.082335,27.4643333 C133.44054,27.0377687 133.619639,26.4280092 133.619639,25.6350365 C133.619639,24.9459706 133.451477,24.4045698 133.115147,24.0108179 C132.778817,23.6170659 132.27433,23.4201929 131.601671,23.4201929 C131.186044,23.4201929 130.803235,23.5090592 130.453233,23.6867945 C130.103232,23.8645297 129.827062,24.1078866 129.624718,24.4168725 C129.422373,24.7258584 129.321202,25.0416756 129.321202,25.3643334 C129.321202,26.135431 129.53038,26.7848385 129.948741,27.3125755 C130.367103,27.8403125 130.901667,28.104177 131.552452,28.104177 Z M145.854795,23.5350366 C145.854795,25.6186407 145.519837,27.1662814 144.849912,28.1780051 C144.179987,29.1897289 143.155974,29.6955832 141.777842,29.6955832 C140.44346,29.6955832 139.431752,29.1733228 138.742686,28.1287864 C138.05362,27.08425 137.709092,25.5530154 137.709092,23.5350366 C137.709092,21.4186199 138.04405,19.8586747 138.713975,18.8551541 C139.3839,17.8516335 140.405179,17.3498808 141.777842,17.3498808 C143.117692,17.3498808 144.132135,17.8748755 144.821201,18.9248807 C145.510267,19.9748859 145.854795,21.5115892 145.854795,23.5350366 Z M139.661436,23.5350366 C139.661436,25.170201 139.829598,26.3377674 140.165928,27.0377708 C140.502258,27.7377743 141.039557,28.0877708 141.777842,28.0877708 C142.516127,28.0877708 143.056161,27.7323056 143.397959,27.0213646 C143.739758,26.3104236 143.910654,25.1483259 143.910654,23.5350366 C143.910654,21.9272162 143.739758,20.7637513 143.397959,20.0446072 C143.056161,19.325463 142.516127,18.9658963 141.777842,18.9658963 C141.039557,18.9658963 140.502258,19.3186271 140.165928,20.0240994 C139.829598,20.7295716 139.661436,21.8998723 139.661436,23.5350366 Z" id="Square60" fill="#FFFFFF"></path>
            </g>
        </g>
    </g>
</svg>